PathFileType	4	(X/Y/Z)	D:\Share\Shared_Data\Ergonomics\Sit To Stand Pertubation\S2\Perturbed.trc
DataRate	CameraRate	NumFrames	NumMarkers	Units	OrigDataRate	OrigDataStartFrame	OrigNumFrames	
100	100	18	18	m	100	18704	191
Frame#	Time	R_Toe			R_ASIS			R_Pelvis			V_Sacral			L_Pelvis			L_ASIS			Clavical			R_Acromium			L_Acromium			Sternum			Torso			R_Thigh_Med			R_Thigh_Lat			R_Thigh			R_Shank_Med			R_Shank_Lat			R_Shank			R_Heel			
		X1	Y1	Z1	X2	Y2	Z2	X3	Y3	Z3	X4	Y4	Z4	X5	Y5	Z5	X6	Y6	Z6	X7	Y7	Z7	X8	Y8	Z8	X9	Y9	Z9	X10	Y10	Z10	X11	Y11	Z11	X12	Y12	Z12	X13	Y13	Z13	X14	Y14	Z14	X15	Y15	Z15	X16	Y16	Z16	X17	Y17	Z17	X18	Y18	Z18	

18704	187.03	0.41613394	0.065230728	0.13649487	0.35898779	1.0266779	0.12489413	0.28241324	1.0304387	0.17165483	0.13719377	1.0382719	0.011516533	0.23227339	1.0398109	-0.17112547	0.3298898	1.0446985	-0.1496651	0.39913083	1.455089	-0.011181054	0.3071265	1.4913303	0.19773401	0.28528705	1.4945413	-0.19253557	0.4321647	1.293183	-0.016195345	0.40040933	1.415501	-0.12690977	0.32324863	0.49449448	0.076693054	0.31350705	0.51938202	0.16770491	0.38380832	0.68352264	0.14843483	0.28257996	0.10697411	0.094435394	0.25929959	0.10106621	0.18575021	0.28382935	0.37298151	0.20025363	0.17914626	0.058452763	0.13498871
18705	187.04	0.41613736	0.065213203	0.13650616	0.36196762	1.0271117	0.12466077	0.28544128	1.0304012	0.17155789	0.13997975	1.0371945	0.011471398	0.2346996	1.0391426	-0.1713264	0.33231903	1.0446896	-0.15001257	0.3978609	1.4560803	-0.011115478	0.3054592	1.491408	0.19787109	0.28355023	1.4944603	-0.19247246	0.43232544	1.294423	-0.016193031	0.39950839	1.4164529	-0.12688747	0.32227277	0.49435712	0.076518402	0.31266098	0.51938245	0.16722922	0.38504089	0.68293933	0.14775952	0.2825672	0.10691623	0.09438401	0.25925339	0.1010651	0.18567886	0.28297882	0.37305716	0.20011165	0.17914508	0.058530434	0.13499879
18706	187.05	0.41613861	0.065197525	0.13651941	0.36486771	1.0274464	0.1244011	0.28843719	1.0302942	0.17145932	0.14268614	1.036017	0.011447888	0.23701773	1.0384071	-0.17152254	0.33463025	1.0445906	-0.15036156	0.39661273	1.4569203	-0.011052661	0.30381299	1.4912841	0.1980126	0.28183719	1.4942601	-0.19239119	0.4324729	1.2955087	-0.01622423	0.39861023	1.4172681	-0.12687324	0.32133032	0.4942049	0.076384483	0.31179617	0.51937842	0.16680257	0.38624573	0.68234796	0.14714656	0.2825426	0.10685014	0.094333267	0.25920419	0.10105739	0.18560979	0.28212189	0.37312601	0.19999026	0.17914684	0.058567459	0.13499483
18707	187.06	0.41613846	0.065183296	0.13653006	0.36768164	1.0276863	0.12412391	0.29138483	1.0301162	0.17136505	0.14530217	1.034739	0.011450679	0.23922119	1.0376254	-0.17170209	0.33681616	1.044426	-0.15070297	0.39539395	1.4576176	-0.010998682	0.30220233	1.4909772	0.19815407	0.28015033	1.4939504	-0.1922934	0.43260376	1.2964463	-0.016292374	0.39771829	1.4179545	-0.12687286	0.32042719	0.49404694	0.076268707	0.31093674	0.51937238	0.16641391	0.38741833	0.68175543	0.14659436	0.28250763	0.10677467	0.094276619	0.25915393	0.10104465	0.18553616	0.28127036	0.37318881	0.19987567	0.17915356	0.058560745	0.13497321
18708	187.07	0.41613742	0.065170242	0.13653549	0.37040497	1.02784	0.12383696	0.29426297	1.0298694	0.17127956	0.14781949	1.0333634	0.011484385	0.24130475	1.0368186	-0.17185242	0.33887244	1.0442219	-0.1510287	0.39421094	1.4581846	-0.010959111	0.3006434	1.4905109	0.19829158	0.27849301	1.4935439	-0.19218465	0.43271405	1.2972466	-0.01639864	0.39683472	1.4185221	-0.12689124	0.31957169	0.4938942	0.076153824	0.31010425	0.51936536	0.16605264	0.38855072	0.68117249	0.14609032	0.28246432	0.10669068	0.094210899	0.25910422	0.10102856	0.18545508	0.28043423	0.37324716	0.19976024	0.17916441	0.058523132	0.13493803
18709	187.08	0.41613583	0.065158302	0.13653502	0.37303421	1.0279196	0.12354573	0.29705313	1.0295599	0.17120552	0.15023418	1.0318976	0.011553896	0.24326567	1.0360054	-0.17196252	0.34079816	1.0440031	-0.15133333	0.39306769	1.458637	-0.010938808	0.29915195	1.4899116	0.19842183	0.27686957	1.4930573	-0.19207405	0.43280023	1.297923	-0.016542128	0.39596106	1.4189843	-0.12693183	0.31877365	0.49375629	0.076030495	0.30931723	0.5193573	0.16571202	0.38963147	0.68061072	0.14561494	0.28241516	0.10660136	0.094136749	0.25905597	0.10101057	0.18536763	0.27962405	0.37330344	0.19964325	0.17917804	0.058466629	0.1348942
18710	187.09	0.41613364	0.065147797	0.13652945	0.37556644	1.0279385	0.1232536	0.29974384	1.0291992	0.17114409	0.15254776	1.0303549	0.011662807	0.24510345	1.0352019	-0.17203017	0.34259552	1.0437894	-0.15161482	0.39196561	1.4589912	-0.010941561	0.29774164	1.4892075	0.19854187	0.27528387	1.4925101	-0.19197159	0.43286075	1.2984927	-0.016720259	0.3950976	1.4193564	-0.12699671	0.31804041	0.4936384	0.075896492	0.30859158	0.5193476	0.16539053	0.3906474	0.68008038	0.14514774	0.28236255	0.10651151	0.094057922	0.25900961	0.10099196	0.18527788	0.27885248	0.3733605	0.19952919	0.17919403	0.058392872	0.13484332
18711	187.1	0.41613071	0.065139404	0.13652055	0.37799875	1.0279113	0.12296268	0.30233032	1.0288024	0.1710946	0.15476651	1.0287555	0.011810129	0.24682071	1.0344224	-0.17206512	0.34427051	1.0435939	-0.15187416	0.39090338	1.4592637	-0.010969745	0.29642294	1.4884265	0.19864935	0.27373849	1.4919247	-0.19188408	0.43289734	1.2989741	-0.016929836	0.39424387	1.4196556	-0.12708649	0.317375	0.49354074	0.075754234	0.30794125	0.51933557	0.16509177	0.39158737	0.67959021	0.14467189	0.28230872	0.10642644	0.093980049	0.25896481	0.10097363	0.18519133	0.27813336	0.37342047	0.19942496	0.17921161	0.05830278	0.13478722
18712	187.11	0.41612671	0.065133812	0.1365105	0.38032794	1.0278525	0.12267488	0.3048114	1.0283873	0.17105469	0.15689929	1.0271262	0.011988779	0.24842525	1.0336777	-0.17208284	0.34583447	1.0434222	-0.15211385	0.38987781	1.4594703	-0.011024322	0.29520239	1.4875981	0.19874265	0.27223358	1.4913236	-0.19181311	0.43291364	1.2993867	-0.017168358	0.39339841	1.4199004	-0.12720056	0.31677954	0.49345972	0.075608818	0.30737891	0.51932086	0.16482237	0.39244623	0.67914667	0.1441776	0.28225537	0.10635106	0.093909103	0.2589213	0.10095623	0.18511281	0.27748019	0.37348386	0.19933733	0.17922861	0.058206596	0.13473135
18713	187.12	0.41612155	0.065131126	0.13650122	0.38254984	1.0277758	0.12239281	0.30718643	1.0279718	0.17102078	0.15895488	1.0254983	0.012186961	0.2499315	1.0329744	-0.1720968	0.34730356	1.0432742	-0.15233626	0.38888516	1.459626	-0.011105125	0.29408313	1.4867509	0.19882079	0.27076691	1.490728	-0.19175629	0.43291397	1.299749	-0.017434528	0.39255957	1.4201096	-0.12733774	0.31626047	0.49339081	0.075466789	0.30691574	0.51930353	0.16458887	0.39322629	0.67875354	0.14366393	0.28220422	0.10628907	0.093849907	0.25887909	0.10094012	0.18504521	0.27690546	0.37354974	0.19927109	0.17924265	0.058118729	0.13468204
18714	187.13	0.41611545	0.065130997	0.13649414	0.38465927	1.0276926	0.12212057	0.3094527	1.0275728	0.17098958	0.16093961	1.023907	0.012390437	0.25135944	1.0323171	-0.17211609	0.34869724	1.0431458	-0.15254263	0.38792258	1.4597443	-0.011211057	0.29306516	1.4859108	0.19888332	0.26933551	1.4901543	-0.19171056	0.43290274	1.3000779	-0.017727257	0.39172708	1.4203003	-0.12749667	0.31583148	0.49333081	0.075334297	0.30656088	0.51928357	0.1643952	0.39393771	0.67841241	0.14313959	0.28215717	0.10624239	0.093804901	0.25883868	0.10092562	0.18498914	0.2764205	0.37361646	0.19922786	0.17925266	0.058048328	0.13464272
18715	187.14	0.41610904	0.065132668	0.13649002	0.38665073	1.0276122	0.1218642	0.31160291	1.0272034	0.17095892	0.16285664	1.0223893	0.01258434	0.25273151	1.0317098	-0.17214595	0.35003619	1.0430311	-0.15273253	0.38698892	1.459839	-0.011339985	0.29214594	1.4851012	0.19892989	0.26793671	1.4896133	-0.19167358	0.43288458	1.3003878	-0.018043751	0.39090323	1.4204857	-0.12767565	0.31551065	0.49327844	0.075215912	0.30632074	0.51926135	0.16424153	0.39459711	0.67812219	0.14262288	0.28211646	0.10621097	0.093773964	0.25880115	0.10091319	0.18494325	0.27603424	0.37368262	0.19920572	0.17925902	0.057997673	0.13461337
18716	187.15	0.41610315	0.065135239	0.13648907	0.3885195	1.0275408	0.12163191	0.31362558	1.0268723	0.17092773	0.16470638	1.0209788	0.012754447	0.25406909	1.031156	-0.17218848	0.35134058	1.0429248	-0.15290318	0.38608487	1.4599225	-0.011488547	0.29131934	1.4843418	0.19896002	0.26656985	1.489111	-0.19164423	0.43286475	1.3006904	-0.018378027	0.39009332	1.4206769	-0.12787199	0.31531448	0.49323398	0.075114716	0.30619824	0.51923749	0.16412505	0.39522705	0.67787988	0.14213979	0.28208444	0.10619321	0.0937547	0.25876776	0.10090327	0.18490483	0.2757518	0.37374738	0.19919998	0.17926312	0.057964867	0.13459187
18717	187.16	0.4160986	0.065137596	0.13649129	0.3902627	1.0274839	0.12143347	0.315508	1.026584	0.17089584	0.16648645	1.0197043	0.012888132	0.25538963	1.0306593	-0.1722433	0.35262695	1.0428226	-0.15304953	0.38521301	1.4600048	-0.011652364	0.2905752	1.4836466	0.19897287	0.26523737	1.4886487	-0.19162303	0.43284964	1.3009934	-0.018720949	0.38930524	1.4208804	-0.12808192	0.31525467	0.49319858	0.075032677	0.30619339	0.51921259	0.16404114	0.39585339	0.67768073	0.14171906	0.28206299	0.10618637	0.093743324	0.2587395	0.10089626	0.18487065	0.27557446	0.37381036	0.19920418	0.17926689	0.057946209	0.13457529
18718	187.17	0.4160957	0.065138611	0.1364964	0.3918801	1.0274458	0.12127855	0.31724033	1.0263402	0.17086365	0.16819183	1.0185872	0.012975678	0.25670474	1.0302212	-0.1723087	0.35390662	1.0427228	-0.15316554	0.38437717	1.4600923	-0.011826709	0.28990009	1.4830256	0.1989677	0.26394482	1.4882246	-0.19161217	0.43284531	1.3013024	-0.019061754	0.38854837	1.4210985	-0.12830083	0.31533765	0.49317352	0.074971077	0.30630392	0.51918823	0.16398457	0.39650159	0.67752014	0.14138574	0.28205286	0.10618689	0.093735458	0.25871744	0.10089251	0.18483784	0.27549966	0.37387097	0.19921187	0.17927231	0.057937813	0.13456084
18719	187.18	0.41609464	0.065137375	0.13650365	0.39337448	1.0274294	0.12117412	0.31881754	1.0261403	0.17083136	0.16981601	1.0176381	0.01301172	0.25802017	1.0298396	-0.1723828	0.35518561	1.0426248	-0.15324634	0.38358209	1.4601875	-0.01200674	0.28927881	1.482483	0.19894444	0.26270129	1.4878352	-0.19161441	0.43285605	1.3016184	-0.019390055	0.38783286	1.4213296	-0.12852348	0.315565	0.49316	0.074930786	0.30652603	0.51916541	0.1639501	0.3971918	0.67739441	0.14115572	0.28205374	0.10619097	0.09372715	0.25870239	0.10089222	0.18480466	0.2755224	0.37392831	0.19921815	0.17928091	0.057936905	0.13454668
18720	187.19	0.41609521	0.065133385	0.13651155	0.39475116	1.0274364	0.12112258	0.32023999	1.0259821	0.17079904	0.17135297	1.0168567	0.012995265	0.25933649	1.0295085	-0.17246416	0.35646503	1.0425277	-0.15328989	0.38283347	1.4602904	-0.01218735	0.2886962	1.4820168	0.19890366	0.26151868	1.4874751	-0.19163159	0.43288388	1.3019402	-0.019697149	0.38716776	1.421568	-0.12874397	0.31593326	0.49315857	0.074912216	0.30685477	0.51914508	0.16393285	0.39793631	0.67730072	0.14103305	0.28206458	0.10619538	0.093715553	0.25869516	0.10089536	0.18477028	0.27563684	0.37398108	0.1992206	0.1792935	0.057943138	0.1345323
18721	187.2	0.41609763	0.065126587	0.13651843	0.396017	1.0274659	0.12112111	0.32151422	1.0258621	0.17076733	0.1727986	1.0162313	0.012928246	0.26064987	1.0292186	-0.17255113	0.35774069	1.0424308	-0.1532979	0.38213669	1.4603984	-0.012363808	0.2881391	1.4816207	0.19884666	0.26041095	1.4871392	-0.19166359	0.43292905	1.3022635	-0.019976103	0.38656052	1.4218059	-0.12895663	0.31643234	0.49316885	0.074915161	0.3072836	0.51912769	0.16392857	0.3987392	0.67723682	0.14100993	0.28208398	0.10619823	0.093699333	0.25869611	0.10090169	0.18473456	0.27583752	0.3740282	0.19921924	0.17930988	0.057959347	0.13451883
